<svg fill="none" xmlns="http://www.w3.org/2000/svg" role="img" height="3rem" viewBox="0 0 2999 1320" version="1.1"><path d="" stroke="none" fill="#908cec" fill-rule="evenodd"/><path d="M 1182 0.588 C 1174.496 3.283, 1170.372 6.402, 1158.470 18.383 C 1151.303 25.598, 1142.908 34.650, 1139.814 38.500 C 1136.721 42.350, 1132.828 46.956, 1131.164 48.736 C 1129.500 50.515, 1126.114 54.565, 1123.639 57.736 C 1121.165 60.906, 1117.646 65.181, 1115.820 67.237 C 1113.994 69.292, 1111.150 72.650, 1109.500 74.699 C 1107.850 76.749, 1104.700 80.509, 1102.500 83.056 C 1100.300 85.602, 1096.025 90.548, 1093 94.046 C 1077.995 111.399, 1075.088 114.844, 1067.245 124.567 C 1059.964 133.594, 1054.304 140.361, 1045.187 150.938 C 1036.746 160.733, 1034.505 163.411, 1028.822 170.500 C 1025.736 174.350, 1019.543 181.550, 1015.061 186.500 C 1006.434 196.026, 1006.414 196.049, 1003.811 200.109 C 1002.891 201.544, 1000.262 204.919, 997.968 207.609 C 989.805 217.182, 988.436 218.813, 983.062 225.368 C 980.070 229.015, 977.258 232, 976.812 232 C 976.365 232, 975.992 232.563, 975.983 233.250 C 975.974 233.938, 974.061 236.536, 971.733 239.024 C 969.405 241.513, 965.938 245.563, 964.028 248.024 C 960.806 252.179, 957.667 255.896, 954 259.898 C 953.175 260.798, 950.939 263.552, 949.032 266.018 C 947.124 268.483, 942.849 273.697, 939.532 277.605 C 936.214 281.513, 929.675 289.340, 925 294.999 C 920.325 300.657, 913.350 308.989, 909.500 313.514 C 903.602 320.445, 894.850 330.945, 887.851 339.487 C 886.943 340.594, 884.468 343.546, 882.351 346.048 C 880.233 348.549, 876.700 352.793, 874.500 355.480 C 872.300 358.166, 868.700 362.461, 866.500 365.023 C 864.300 367.586, 860.700 371.860, 858.500 374.520 C 856.300 377.181, 852.925 381.243, 851 383.548 C 849.075 385.852, 843.675 392.362, 839 398.013 C 834.325 403.664, 827.350 411.983, 823.500 416.501 C 813.871 427.799, 809.562 432.979, 806.866 436.500 C 805.603 438.150, 804.285 439.725, 803.937 440 C 803.590 440.275, 800.207 444.325, 796.421 449 C 792.634 453.675, 788.786 458.400, 787.869 459.500 C 786.951 460.600, 784.468 463.571, 782.351 466.103 C 780.233 468.635, 776.700 472.885, 774.500 475.547 C 772.300 478.210, 769.825 481.097, 769 481.962 C 768.175 482.827, 765.938 485.552, 764.028 488.018 C 762.119 490.483, 759.568 493.625, 758.358 495 C 755.640 498.091, 749.644 505.273, 745 511 C 743.075 513.374, 739.925 517.204, 738 519.511 C 736.075 521.818, 732.852 525.685, 730.838 528.103 C 727.276 532.379, 717.142 544.848, 708.164 556 C 705.729 559.025, 703.008 562.220, 702.118 563.101 C 701.228 563.981, 699.150 566.375, 697.500 568.421 C 691.162 576.279, 688.346 579.603, 683.909 584.467 C 681.383 587.235, 677.108 591.969, 674.409 594.987 C 671.709 598.005, 661.073 608.743, 650.772 618.850 C 624.297 644.828, 614.882 656.156, 607.443 670.978 C 603.494 678.847, 603.149 681.544, 605.999 682.289 C 611.038 683.607, 634.573 662.705, 684.500 612.568 C 701.550 595.447, 722.925 574.509, 732 566.040 C 751.693 547.662, 772.067 528.412, 804.012 498 C 817.011 485.625, 844.459 459.525, 865.008 440 C 885.557 420.475, 913.445 393.925, 926.982 381 C 958.638 350.774, 1015.579 297.085, 1068.566 247.500 C 1076.207 240.350, 1087.884 229.325, 1094.516 223 C 1101.147 216.675, 1113.756 204.751, 1122.536 196.502 C 1131.316 188.253, 1143.913 176.328, 1150.528 170.002 C 1157.144 163.676, 1167.044 154.232, 1172.528 149.016 C 1178.013 143.800, 1196.111 126.321, 1212.746 110.175 C 1242.053 81.731, 1243.123 80.557, 1247.161 72.408 C 1251.072 64.515, 1251.357 63.353, 1251.793 53.540 C 1252.489 37.894, 1250.031 30.074, 1241.268 20.056 C 1235.489 13.450, 1227.607 7.622, 1219.141 3.696 C 1212.822 0.765, 1211.796 0.602, 1198 0.333 C 1190.025 0.177, 1182.825 0.292, 1182 0.588 M 881.336 88.043 C 879.046 88.496, 875.411 89.978, 873.258 91.337 C 865.486 96.243, 842.812 119.136, 825.500 139.555 C 822.750 142.799, 819.183 146.813, 817.573 148.476 C 815.964 150.139, 812.460 154.280, 809.788 157.678 C 807.116 161.076, 804.608 164.001, 804.215 164.178 C 803.822 164.355, 801.700 166.745, 799.500 169.488 C 797.300 172.232, 794.825 175.190, 794 176.062 C 793.175 176.935, 790.925 179.597, 789 181.977 C 787.075 184.358, 784.375 187.694, 783 189.390 C 781.625 191.086, 779.600 193.593, 778.500 194.962 C 777.400 196.330, 775.079 198.928, 773.342 200.733 C 771.605 202.539, 767.786 206.825, 764.854 210.258 C 761.922 213.691, 758.840 217.175, 758.003 218 C 757.167 218.825, 754.545 222.055, 752.175 225.179 C 749.806 228.302, 746.707 231.617, 745.289 232.546 C 741.551 234.995, 734.652 234.697, 725.500 231.691 C 718.051 229.244, 681.065 221.659, 664 219.079 C 638.823 215.271, 599.893 214.211, 565.710 216.402 C 552.076 217.276, 539.026 218.420, 536.710 218.944 C 534.395 219.467, 528.450 220.631, 523.500 221.528 C 512.732 223.482, 498.628 226.323, 487 228.883 C 482.325 229.913, 475.800 231.067, 472.500 231.448 C 468.852 231.870, 458.082 235.288, 445.026 240.168 C 406.308 254.641, 402.716 256.249, 380.189 269.198 C 371.768 274.039, 364.738 278, 364.567 278 C 362.650 278, 324.408 303.161, 313.500 311.599 C 282.683 335.438, 245.261 371.487, 227.958 394 C 225.633 397.025, 223.229 399.950, 222.615 400.500 C 222.001 401.050, 220.296 403.300, 218.826 405.500 C 217.357 407.700, 213.893 412.650, 211.130 416.500 C 206.776 422.566, 194.692 441.540, 191.389 447.497 C 190.778 448.598, 188.720 452.215, 186.816 455.534 C 183.304 461.652, 172.063 484.357, 168.018 493.500 C 166.801 496.250, 165.199 499.850, 164.457 501.500 C 162.794 505.201, 156.877 520.744, 154.560 527.500 C 153.616 530.250, 152.451 533.400, 151.969 534.500 C 151.488 535.600, 150.590 538.300, 149.974 540.500 C 149.359 542.700, 148.194 546.750, 147.387 549.500 C 144.810 558.279, 142.188 568.549, 140.974 574.612 C 140.325 577.850, 139.165 583.650, 138.395 587.500 C 136.807 595.441, 135.524 602.866, 132.952 619 C 131.444 628.460, 131.478 628.169, 129.555 648.500 C 127.651 668.638, 127.861 722.117, 129.877 730.500 C 130.538 733.250, 131.249 736.850, 131.456 738.500 C 131.664 740.150, 132.310 745.325, 132.893 750 C 134.331 761.528, 134.734 764.180, 136.052 770.804 C 136.676 773.937, 137.810 780.100, 138.573 784.500 C 140.770 797.172, 142.662 806.101, 144.293 811.500 C 145.124 814.250, 146.089 818.168, 146.439 820.207 C 146.991 823.427, 148.239 826.859, 152 835.500 C 154.483 841.206, 162.011 861.214, 162.599 863.669 C 162.971 865.226, 163.606 866.950, 164.010 867.500 C 164.413 868.050, 166.187 872.456, 167.952 877.290 C 169.717 882.125, 171.797 887.300, 172.574 888.790 C 173.352 890.281, 173.990 893.205, 173.994 895.289 C 173.999 898.669, 173.001 900.181, 164.750 909.289 C 159.662 914.905, 153.738 921.750, 151.585 924.500 C 149.432 927.250, 147.176 929.950, 146.571 930.500 C 145.967 931.050, 144.643 932.795, 143.630 934.377 C 142.616 935.960, 138.123 941.304, 133.644 946.255 C 129.165 951.205, 123.925 957.160, 122 959.488 C 120.075 961.817, 115.800 966.866, 112.500 970.709 C 109.200 974.552, 103.654 981.132, 100.175 985.332 C 96.696 989.533, 91.700 995.338, 89.073 998.234 C 80.575 1007.602, 73.611 1015.473, 68.500 1021.488 C 65.750 1024.724, 62.509 1028.413, 61.297 1029.684 C 60.085 1030.956, 57.470 1034.123, 55.486 1036.722 C 53.501 1039.321, 49.768 1043.732, 47.189 1046.523 C 44.610 1049.314, 40.723 1053.826, 38.552 1056.549 C 34.663 1061.425, 30.324 1066.350, 24.575 1072.415 C 22.966 1074.112, 18.023 1079.775, 13.589 1085 C 9.156 1090.225, 5.277 1094.725, 4.970 1095 C 2.961 1096.796, 0 1103.671, 0 1106.538 C 0 1109.359, 0.442 1110.073, 2.507 1110.591 C 4.037 1110.975, 5.889 1110.633, 7.257 1109.714 C 11.295 1107.003, 34.031 1086.097, 59.069 1062.073 C 72.582 1049.108, 90.356 1032.200, 98.568 1024.500 C 106.779 1016.800, 118.684 1005.550, 125.022 999.500 C 136.667 988.384, 158.210 968.187, 172.017 955.440 C 186.543 942.030, 193.865 936.154, 196.198 936.035 C 197.892 935.950, 206 945.745, 206 947.876 C 206 948.403, 206.338 948.983, 206.750 949.167 C 207.163 949.350, 209.289 952.200, 211.476 955.500 C 213.662 958.800, 217.262 963.844, 219.476 966.708 C 221.689 969.572, 225.075 974.006, 227 976.561 C 228.925 979.115, 231.063 981.802, 231.750 982.531 C 232.438 983.261, 233 984.339, 233 984.929 C 233 985.518, 233.338 986.002, 233.750 986.004 C 234.162 986.006, 236.750 988.798, 239.500 992.209 C 242.250 995.620, 245.512 999.509, 246.750 1000.851 C 247.987 1002.194, 249 1003.644, 249 1004.075 C 249 1004.505, 249.777 1005.634, 250.727 1006.584 C 253.388 1009.245, 252.930 1015.043, 249.699 1019.607 C 244.443 1027.032, 241.871 1030.484, 238.987 1033.983 C 237.393 1035.917, 234.423 1039.750, 232.387 1042.500 C 230.351 1045.250, 228.419 1047.725, 228.093 1048 C 227.767 1048.275, 225.708 1051.160, 223.517 1054.412 C 221.326 1057.663, 219.060 1060.813, 218.481 1061.412 C 217.902 1062.010, 215.870 1064.750, 213.964 1067.500 C 212.059 1070.250, 210.260 1072.725, 209.967 1073 C 209.674 1073.275, 207.658 1075.975, 205.488 1079 C 203.317 1082.025, 201.082 1085.047, 200.521 1085.715 C 197.913 1088.820, 197.276 1089.710, 195.484 1092.750 C 194.431 1094.537, 193.265 1096, 192.893 1096 C 192.521 1096, 191.954 1097.048, 191.633 1098.328 C 191.311 1099.608, 190.025 1101.771, 188.774 1103.133 C 187.523 1104.495, 184.475 1108.283, 182 1111.551 C 179.525 1114.819, 176.713 1118.366, 175.750 1119.435 C 174.787 1120.503, 174 1121.673, 174 1122.036 C 174 1122.398, 173.213 1123.625, 172.250 1124.763 C 168.338 1129.387, 167.321 1130.710, 163.991 1135.500 C 162.080 1138.250, 159.612 1141.681, 158.508 1143.124 C 157.404 1144.568, 155.600 1147.004, 154.500 1148.539 C 153.400 1150.074, 152.020 1151.818, 151.433 1152.415 C 150.847 1153.012, 149.500 1154.850, 148.441 1156.500 C 147.382 1158.150, 146.159 1159.950, 145.724 1160.500 C 145.288 1161.050, 140.335 1167.856, 134.716 1175.624 C 120.936 1194.675, 117.661 1199.098, 113.706 1204 C 113.040 1204.825, 110.705 1207.975, 108.518 1211 C 106.331 1214.025, 103.966 1217.098, 103.264 1217.828 C 102.562 1218.558, 101.479 1220.105, 100.858 1221.265 C 100.237 1222.425, 99.328 1223.852, 98.837 1224.437 C 98.346 1225.022, 95.910 1228.200, 93.424 1231.500 C 90.938 1234.800, 88.363 1238.175, 87.702 1239 C 87.041 1239.826, 85.683 1241.768, 84.684 1243.316 C 82.936 1246.025, 82.210 1246.956, 77.251 1252.834 C 76.014 1254.300, 75.002 1255.769, 75.001 1256.097 C 75.001 1256.425, 74.212 1257.625, 73.250 1258.763 C 68.932 1263.867, 68.024 1265.036, 66.324 1267.684 C 65.330 1269.233, 64.169 1270.950, 63.746 1271.500 C 60.733 1275.414, 57.194 1280.092, 55.500 1282.401 C 48.419 1292.050, 45.507 1295.851, 43.159 1298.507 C 41.696 1300.160, 39.169 1303.310, 37.541 1305.507 C 35.914 1307.703, 34.227 1309.650, 33.791 1309.833 C 33.356 1310.017, 33 1310.767, 33 1311.500 C 33 1312.233, 32.662 1312.983, 32.250 1313.167 C 31.837 1313.350, 30.733 1314.963, 29.797 1316.750 L 28.093 1320 35.987 1320 C 40.329 1320, 44.163 1319.546, 44.505 1318.991 C 44.848 1318.436, 48.327 1315.431, 52.236 1312.312 C 56.144 1309.193, 62.382 1303.774, 66.097 1300.269 C 69.813 1296.765, 74.641 1292.683, 76.826 1291.199 C 79.012 1289.714, 86.629 1283.550, 93.753 1277.500 C 100.877 1271.450, 111.359 1262.675, 117.047 1258 C 122.734 1253.325, 131.516 1245.900, 136.562 1241.500 C 141.608 1237.100, 150.600 1229.450, 156.545 1224.500 C 162.490 1219.550, 169.861 1213.226, 172.927 1210.446 C 175.992 1207.667, 179.625 1204.675, 181 1203.798 C 182.375 1202.920, 188.722 1197.545, 195.105 1191.851 C 201.488 1186.158, 211.346 1177.675, 217.012 1173 C 222.678 1168.325, 228.931 1163.116, 230.907 1161.425 C 232.883 1159.734, 237.650 1155.730, 241.500 1152.527 C 252.842 1143.092, 267.676 1130.001, 275.349 1122.654 C 279.282 1118.888, 285.142 1113.713, 288.370 1111.154 C 291.599 1108.594, 298.222 1103.125, 303.088 1099 C 307.954 1094.875, 314.200 1089.805, 316.969 1087.734 C 319.738 1085.662, 323.015 1082.405, 324.252 1080.496 C 325.823 1078.069, 327.252 1077.021, 329 1077.013 C 332.175 1076.998, 342.183 1081.715, 349.697 1086.766 C 352.889 1088.912, 358.363 1092.591, 361.862 1094.940 C 368.684 1099.522, 374.819 1102.456, 389.500 1108.154 C 392.800 1109.435, 399.464 1112.405, 404.310 1114.754 C 409.155 1117.103, 415.905 1120.165, 419.310 1121.557 C 422.714 1122.950, 426.400 1124.478, 427.500 1124.952 C 433.087 1127.360, 461.330 1136.970, 478.500 1142.304 C 501.209 1149.359, 527.444 1153.904, 563.500 1157.029 C 579.437 1158.410, 631.956 1157.856, 646.500 1156.154 C 659.990 1154.575, 685.778 1150.205, 698 1147.427 C 759.197 1133.516, 806.545 1114.316, 848 1086.599 C 853.775 1082.737, 862.550 1076.904, 867.500 1073.637 C 881.130 1064.639, 889.362 1058.529, 901.985 1048.042 C 914.659 1037.512, 942.633 1010.004, 950.904 999.938 C 953.813 996.397, 956.720 993.050, 957.362 992.500 C 958.005 991.950, 960.087 989.475, 961.990 987 C 963.892 984.525, 965.704 982.275, 966.017 982 C 966.329 981.725, 969.491 977.675, 973.042 973 C 976.594 968.325, 979.950 963.953, 980.500 963.285 C 981.050 962.616, 981.966 961.491, 982.536 960.785 C 983.798 959.219, 995.106 942.251, 996.500 939.831 C 997.050 938.876, 999.351 935.036, 1001.613 931.297 C 1009.055 918.999, 1028 882.524, 1028 880.495 C 1028 880.177, 1029.295 877.123, 1030.877 873.708 C 1032.459 870.294, 1034.089 866.375, 1034.499 865 C 1034.909 863.625, 1035.562 862.050, 1035.950 861.500 C 1036.338 860.950, 1037.465 858.250, 1038.455 855.500 C 1039.444 852.750, 1040.823 849.150, 1041.520 847.500 C 1043.102 843.752, 1044.224 840.799, 1044.562 839.500 C 1044.704 838.950, 1046.034 835.350, 1047.517 831.500 C 1049 827.650, 1050.302 824.050, 1050.411 823.500 C 1050.694 822.069, 1054.981 807.972, 1056.037 805 C 1056.525 803.625, 1057.848 798.450, 1058.977 793.500 C 1060.106 788.550, 1061.466 782.700, 1061.999 780.500 C 1063.385 774.785, 1064.917 763.624, 1066.529 747.500 C 1067.299 739.800, 1068.382 729.225, 1068.937 724 C 1070.254 711.597, 1070.267 674.840, 1068.959 664 C 1068.394 659.325, 1067.282 648.075, 1066.486 639 C 1064.976 621.778, 1063.037 607.369, 1060.633 595.500 C 1059.853 591.650, 1058.725 586.025, 1058.126 583 C 1057.527 579.975, 1056.595 575.700, 1056.054 573.500 C 1055.514 571.300, 1054.323 565.450, 1053.406 560.500 C 1052.490 555.550, 1051.422 551.050, 1051.033 550.500 C 1049.983 549.016, 1046.221 538.023, 1045.386 534 C 1044.271 528.624, 1044.047 527.037, 1043.350 519.548 L 1042.702 512.597 1068.623 487.048 C 1082.879 472.997, 1105.109 450.477, 1118.022 437.004 C 1130.935 423.531, 1146.721 407.106, 1153.103 400.504 C 1166.829 386.304, 1169.752 382.150, 1173.516 371.500 C 1175.792 365.059, 1176.429 361.292, 1176.782 352.174 C 1177.351 337.478, 1174.867 328.055, 1168.138 319.391 C 1167.237 318.231, 1164.626 314.815, 1162.336 311.801 C 1154.912 302.027, 1144.512 297.031, 1127.314 294.978 C 1106.580 292.502, 1098.517 296.547, 1081.506 317.961 C 1078.246 322.064, 1074.784 326.216, 1073.812 327.188 C 1072.840 328.160, 1070.653 330.877, 1068.952 333.227 C 1067.251 335.577, 1063.911 339.750, 1061.530 342.500 C 1055.570 349.383, 1038.747 370.406, 1025.215 387.879 C 1022.072 391.938, 1018.825 395.996, 1018 396.897 C 1017.175 397.798, 1014.925 400.551, 1013 403.014 C 1008.621 408.618, 1005.927 411.889, 1004 413.939 C 1003.175 414.817, 1000.950 417.552, 999.055 420.018 C 997.160 422.483, 994.910 425.221, 994.055 426.103 C 992.513 427.693, 990.295 430.390, 981.804 441 C 979.383 444.025, 973.242 451.675, 968.157 458 C 963.073 464.325, 957.838 470.850, 956.525 472.500 C 955.212 474.150, 950.865 479.550, 946.865 484.500 C 942.865 489.450, 937.592 495.975, 935.148 499 C 932.704 502.025, 930.431 504.725, 930.096 505 C 929.762 505.275, 928.149 507.300, 926.511 509.500 C 923.307 513.804, 920.395 517.381, 918 519.954 C 917.175 520.841, 915.158 523.351, 913.517 525.533 C 911.876 527.715, 909.981 530.175, 909.305 531 C 908.629 531.825, 903.778 537.900, 898.525 544.500 C 893.272 551.100, 887.742 558.029, 886.237 559.898 C 883.355 563.477, 879.490 568.298, 874.500 574.542 C 872.850 576.607, 870.150 579.982, 868.500 582.042 C 866.850 584.103, 864.150 587.491, 862.500 589.573 C 860.850 591.654, 858.819 594.070, 857.986 594.942 C 857.154 595.814, 855.397 598.096, 854.081 600.014 C 852.766 601.931, 851.190 603.950, 850.579 604.500 C 849.969 605.050, 847.901 607.524, 845.985 609.997 C 841.439 615.862, 840.743 616.740, 836.812 621.560 C 834.990 623.793, 832.150 627.347, 830.500 629.458 C 828.850 631.569, 826.150 634.982, 824.500 637.042 C 822.850 639.103, 820.150 642.491, 818.500 644.573 C 816.850 646.654, 814.819 649.070, 813.986 649.942 C 813.154 650.814, 811.378 653.096, 810.039 655.014 C 807.653 658.431, 806.742 659.547, 801.564 665.396 C 800.154 666.989, 799 668.568, 799 668.906 C 799 669.244, 797.987 670.642, 796.750 672.013 C 795.513 673.383, 792.475 677.193, 790 680.479 C 784.042 688.390, 782.781 689.994, 781 691.933 C 780.175 692.831, 778.180 695.351, 776.568 697.533 C 774.955 699.715, 770.905 704.321, 767.568 707.769 C 764.230 711.216, 760.806 715.310, 759.957 716.866 C 759.109 718.423, 756.381 722.127, 753.894 725.098 C 751.408 728.069, 747.925 732.813, 746.153 735.641 C 744.381 738.468, 741.924 741.869, 740.693 743.197 C 739.463 744.525, 736.764 747.916, 734.696 750.733 C 732.628 753.550, 730.605 756, 730.199 756.177 C 729.794 756.355, 728.345 757.897, 726.981 759.603 C 712.658 777.520, 708.508 782.590, 707.735 783.112 C 707.237 783.448, 706.907 784.047, 707.002 784.442 C 707.098 784.837, 705.888 786.586, 704.315 788.330 C 702.741 790.073, 700.363 793.075, 699.029 795 C 697.696 796.925, 695.819 799.400, 694.859 800.500 C 693.899 801.600, 691.401 804.571, 689.307 807.103 C 680.306 817.986, 677.383 821.483, 675.500 823.623 C 674.400 824.873, 672.375 827.359, 671 829.149 C 669.625 830.939, 666.925 834.246, 665 836.499 C 663.075 838.752, 660.150 842.329, 658.500 844.450 C 653.212 851.245, 646.603 859.485, 646.027 860 C 645.719 860.275, 644.188 862.075, 642.624 864 C 641.059 865.925, 637.773 869.638, 635.321 872.250 C 632.869 874.862, 631.159 877, 631.521 877 C 631.882 877, 629.550 880.078, 626.339 883.839 C 623.127 887.601, 618.925 892.621, 617 894.994 C 615.075 897.368, 612.040 900.927, 610.255 902.905 C 606.873 906.652, 606.156 909.756, 608.200 911.800 C 611.296 914.896, 614.126 913.108, 630.437 897.750 C 639.345 889.363, 650.869 878.675, 656.045 874 C 665.481 865.478, 670.094 861.217, 695.020 838 C 719.645 815.064, 724.482 810.569, 736.450 799.500 C 742.991 793.450, 756.478 780.817, 766.421 771.428 C 776.365 762.038, 789 750.294, 794.500 745.331 C 800 740.367, 810.812 730.275, 818.526 722.903 C 835.585 706.602, 863.724 680.703, 874.196 671.664 C 878.921 667.585, 882.460 665.239, 883.364 665.586 C 886.649 666.847, 887.501 675.527, 887.477 707.500 L 887.455 738.500 882.153 758.500 C 874.013 789.209, 870.554 799.001, 861.311 817.500 C 854.251 831.630, 851.806 836.228, 850.939 837 C 850.630 837.275, 848.625 840.425, 846.483 844 C 844.341 847.575, 842.119 851.007, 841.544 851.627 C 840.970 852.248, 839.825 853.752, 839 854.971 C 838.175 856.189, 836.712 858.113, 835.750 859.246 C 834.788 860.379, 834 861.579, 834 861.913 C 834 862.247, 832.971 863.641, 831.714 865.010 C 830.456 866.380, 828.769 868.448, 827.964 869.607 C 823.900 875.457, 816.214 883.915, 802.565 897.558 C 782.475 917.638, 770.924 926.208, 746 939.524 C 739.675 942.904, 731.558 947.294, 727.962 949.280 C 715.684 956.062, 682.808 968.526, 669 971.633 C 662.143 973.176, 647.542 975.483, 635 977.004 C 609.828 980.057, 567.272 979.032, 547.757 974.901 C 542.666 973.824, 534.900 972.212, 530.500 971.320 C 521.929 969.581, 489.758 959.293, 482.121 955.848 C 465.113 948.176, 457.322 943.886, 441 933.204 C 406.172 910.412, 380.515 886.951, 366.410 865 C 364.820 862.525, 363.266 860.275, 362.957 860 C 362.647 859.725, 361.317 857.700, 360 855.500 C 358.683 853.300, 357.340 851.275, 357.014 851 C 354.129 848.559, 340.009 822.530, 333.476 807.608 C 331.061 802.094, 331.945 796.173, 335.982 790.807 C 337.764 788.438, 349.185 776.593, 361.361 764.485 C 373.538 752.376, 406.900 718.488, 435.500 689.178 C 464.100 659.867, 543.525 579.890, 612 511.451 C 726.569 396.942, 820.775 302.293, 855.500 266.807 C 863.200 258.938, 875.575 246.625, 883 239.445 C 890.425 232.265, 900.325 222.339, 905 217.387 C 911.582 210.415, 931.806 191.196, 935.922 188 C 936.276 187.725, 938.336 185.025, 940.500 182 C 942.664 178.975, 944.674 176.275, 944.967 176 C 945.667 175.343, 948.527 169.430, 950.334 164.904 C 951.123 162.927, 952.533 156.759, 953.467 151.198 C 955.027 141.905, 955.038 140.476, 953.600 133.521 C 952.154 126.533, 947.535 116.392, 944.343 113.200 C 943.604 112.461, 943 111.492, 943 111.046 C 943 110.600, 940.101 107.421, 936.558 103.981 C 925.433 93.180, 917.356 89.548, 901.006 87.998 C 889.169 86.875, 887.215 86.880, 881.336 88.043 M 1627.743 364.014 C 1574.720 368.782, 1522.174 388.353, 1478 419.787 C 1458.079 433.962, 1432.979 457.903, 1417.193 477.784 C 1385.136 518.158, 1363.581 567.204, 1355.571 618 C 1349.574 656.029, 1351.388 698.650, 1360.589 735.881 C 1374.225 791.055, 1400.519 837.536, 1440.992 878.008 C 1488.142 925.159, 1545.562 954.088, 1612 964.166 C 1631.357 967.102, 1673.729 967.370, 1692.913 964.678 C 1761.135 955.106, 1818.743 926.450, 1867.033 878.067 C 1891.222 853.832, 1907.094 832.372, 1921.814 804 C 1964.181 722.340, 1967.196 626.414, 1930.033 542.500 C 1907.095 490.705, 1869.139 445.454, 1822.500 414.300 C 1784.024 388.597, 1742.452 372.687, 1696.028 365.896 C 1680.474 363.621, 1643.460 362.601, 1627.743 364.014 M 2012 661.992 L 2012 954 2070.497 954 L 2128.995 954 2129.247 763.015 L 2129.500 572.031 2241.370 763.015 L 2353.241 954 2416.120 954 L 2479 954 2479 661.992 L 2479 369.984 2420.250 370.242 L 2361.500 370.500 2361 561.181 L 2360.500 751.862 2248.917 561.181 L 2137.335 370.500 2074.667 370.242 L 2012 369.985 2012 661.992 M 2689.768 371.112 C 2614.363 378.386, 2551.228 435.393, 2534.845 511 C 2532.841 520.249, 2532.565 524.358, 2532.535 545.500 C 2532.497 571.651, 2533.161 576.785, 2539.108 596.310 C 2557.905 658.027, 2608.801 704.425, 2672.849 718.229 C 2681.961 720.193, 2686.720 720.347, 2758 720.981 C 2841.175 721.722, 2837.514 721.437, 2850.992 728.223 C 2863.809 734.677, 2875.611 749.732, 2879.472 764.552 C 2881.436 772.096, 2881.429 785.932, 2879.457 793.505 C 2873.941 814.682, 2856.844 831.014, 2835.500 835.496 C 2829.548 836.745, 2808.703 836.968, 2696.250 836.983 L 2564 837 2564 895.526 L 2564 954.053 2706.250 953.740 L 2848.500 953.427 2858.500 951.156 C 2912.184 938.964, 2955.020 906.309, 2979.387 859 C 3009.021 801.468, 3004.816 734.696, 2968.103 679.793 C 2943.534 643.051, 2903.027 616.353, 2857.470 606.875 C 2846.770 604.649, 2844.641 604.579, 2771 604.046 L 2695.500 603.500 2688.119 600.805 C 2665.545 592.561, 2650.921 573.284, 2649.349 549.699 C 2647.834 526.964, 2659.885 505.081, 2679.603 494.762 C 2693.192 487.651, 2684.317 488.031, 2837.250 488.015 L 2975 488 2975 429 L 2975 370 2836.750 370.135 C 2760.713 370.209, 2694.571 370.649, 2689.768 371.112 M 549.500 402.181 C 539.117 403.781, 522.699 407.106, 517.500 408.663 C 509.911 410.936, 494.755 415.967, 492.500 416.962 C 491.400 417.447, 485.174 420.160, 478.665 422.990 C 472.156 425.819, 464.843 429.229, 462.415 430.567 C 440.383 442.707, 433.284 447.351, 416.421 460.654 C 403.160 471.115, 383.844 490.414, 375.175 501.863 C 373.704 503.806, 371.488 506.497, 370.250 507.844 C 369.013 509.190, 368 510.607, 368 510.993 C 368 511.379, 367.108 512.775, 366.019 514.097 C 364.929 515.419, 363.675 516.950, 363.232 517.500 C 359.404 522.253, 344 547.321, 344 548.797 C 344 549.367, 343.663 549.983, 343.250 550.167 C 341.566 550.915, 330.961 574.123, 325.278 589.500 C 312.240 624.776, 306.356 664.278, 308.953 699.104 C 310.934 725.656, 311.083 726.452, 314.134 726.805 C 316.049 727.027, 317.368 726.344, 318.965 724.305 C 321.235 721.406, 326.376 715.522, 341.016 699.070 C 345.700 693.807, 351.394 687.250, 353.669 684.500 C 355.944 681.750, 359.706 677.475, 362.029 675 C 364.352 672.525, 368.496 667.800, 371.238 664.500 C 373.980 661.200, 379.715 654.675, 383.984 650 C 388.252 645.325, 393.018 639.925, 394.575 638 C 396.132 636.075, 399.227 632.466, 401.453 629.981 C 403.679 627.495, 408.200 622.349, 411.500 618.545 C 414.800 614.741, 419.525 609.326, 422 606.511 C 431.174 596.076, 437.814 588.404, 440.617 585 C 442.203 583.075, 444.215 580.825, 445.090 580 C 445.964 579.175, 448.664 576.049, 451.090 573.053 C 453.515 570.057, 456.400 566.637, 457.500 565.452 C 463.043 559.481, 466.985 554.996, 471.036 550.053 C 473.491 547.057, 476.400 543.669, 477.500 542.523 C 478.600 541.377, 481.975 537.571, 485 534.065 C 488.025 530.559, 492.525 525.369, 495 522.530 C 497.475 519.691, 501.750 514.762, 504.500 511.575 C 507.250 508.389, 511.525 503.456, 514 500.613 C 516.475 497.770, 519.850 493.760, 521.500 491.702 C 523.150 489.644, 525.850 486.490, 527.500 484.694 C 529.150 482.898, 532.750 478.784, 535.500 475.553 C 538.250 472.321, 541.175 468.942, 542 468.044 C 545.050 464.725, 556.595 451.289, 559.500 447.680 C 561.150 445.629, 563.625 442.725, 565 441.226 C 567.920 438.042, 585.403 417.266, 592.159 408.951 C 595.568 404.754, 596.520 402.920, 595.709 402.109 C 594.350 400.750, 558.426 400.806, 549.500 402.181 M 1634 480.628 C 1604.059 484.298, 1575.743 494.900, 1549.917 512.112 C 1540.274 518.538, 1534.365 523.527, 1523.467 534.443 C 1507.638 550.299, 1499.013 561.824, 1490.059 579.085 C 1474.234 609.594, 1468.135 636.792, 1469.266 671.813 C 1470.178 700.067, 1475.535 720.895, 1488.519 746.669 C 1498.590 766.661, 1506.661 777.712, 1523.475 794.525 C 1540.249 811.299, 1551.339 819.410, 1571.142 829.387 C 1599.438 843.642, 1622.202 849.017, 1654.128 848.982 C 1685.173 848.947, 1709.007 843.496, 1735.321 830.414 C 1772.892 811.734, 1801.084 783.623, 1820.025 745.951 C 1829.287 727.530, 1834.887 709.273, 1837.614 688.611 C 1839.531 674.081, 1839.026 646.104, 1836.613 633.146 C 1822.149 555.487, 1763.682 497.013, 1685.854 482.371 C 1677.769 480.851, 1641.998 479.648, 1634 480.628" stroke="none" fill="#8c8cec" fill-rule="evenodd"/></svg>